
<svg xmlns="http://www.w3.org/2000/svg" version="1.1" xmlns:xlink="http://www.w3.org/1999/xlink" preserveAspectRatio="none" x="0px" y="0px" width="200px" height="100px" viewBox="0 0 200 100">
<defs>
<g id="Layer0_0_FILL">
<path fill="#FFFFFF" stroke="none" d="
M 165.25 59.65
L 170.2 59.65 170.2 52.5 165.25 52.5 165.25 26.15 161.55 26.15
Q 159.15 26.15 156.75 26.6 154.45 27.1 152.3 28.05 150.15 28.95 148.25 30.25 146.35 31.55 144.7 33.2 143.1 34.8 141.8 36.7 140.55 38.65 139.65 40.75 138.7 42.9 138.25 45.2 137.75 47.55 137.75 49.95
L 137.75 73.95 144.85 73.95 144.85 59.65 158 59.65 158 73.95 165.25 73.95 165.25 59.65
M 148.6 39.5
Q 150.4 37.35 152.75 35.85 155.25 34.35 158 33.7
L 158 52.5 144.85 52.5 144.85 49.95
Q 144.85 47.05 145.85 44.35 146.85 41.7 148.6 39.5
M 124.7 33.4
L 133.35 33.4 133.35 26.2 109 26.2 109 33.4 117.65 33.4 117.65 73.95 124.7 73.95 124.7 33.4
M 85.65 26.2
Q 83.3 26.2 81.2 26.75 79.15 27.25 77.35 28.25 75.6 29.2 74.1 30.6 72.65 31.95 71.4 33.65 68.65 38.5 67.85 41.3 66.65 45.5 66.65 50.05 66.65 54.65 67.85 58.85 69.85 64.25 71.4 66.5 72.65 68.2 74.1 69.55 75.6 70.95 77.35 71.9 79.15 72.9 81.2 73.4 83.3 73.95 85.65 73.95 88 73.95 90.1 73.4 92.15 72.9 93.95 71.9 95.7 70.95 97.25 69.55 98.7 68.2 99.95 66.5 101.5 64.25 103.5 58.85 104.7 54.65 104.7 50.05 104.7 45.5 103.5 41.3 102.7 38.5 99.95 33.65 98.7 31.95 97.25 30.6 95.7 29.2 93.95 28.25 92.15 27.25 90.1 26.75 88 26.2 85.65 26.2
M 85.65 33.4
Q 88.55 33.4 90.85 34.85 93.05 36.15 94.6 38.6 96.1 40.95 96.85 43.95 97.6 46.9 97.6 50.05 97.6 53.25 96.85 56.2 96.1 59.25 94.6 61.5 93.05 64 90.85 65.35 88.55 66.75 85.65 66.75 82.8 66.75 80.45 65.35 78.3 64 76.7 61.5 75.25 59.25 74.5 56.2 73.7 53.25 73.7 50.05 73.7 46.9 74.5 43.95 75.25 40.95 76.7 38.6 78.3 36.15 80.45 34.85 82.8 33.4 85.65 33.4
M 44.2 33.4
L 62.35 33.4 62.35 26.2 37 26.2 37 44.15 29.8 44.15 29.8 51.25 37 51.25 37 73.95 44.2 73.95 44.2 51.25 58.65 51.25 58.65 44.15 44.2 44.15 44.2 33.4 Z"/>
</g>
</defs>

<g transform="matrix( 1, 0, 0, 1, 0,0) ">
<use xlink:href="#Layer0_0_FILL"/>
</g>
</svg>
